<svg xmlns="http://www.w3.org/2000/svg" width="529.979" height="300.711" viewBox="0 0 529.979 300.711">
  <g id="Cross_Docking" data-name="Cross Docking" transform="translate(-564 -694.145)">
    <path id="Pfad_617" data-name="Pfad 617" d="M209.415,254.453C217.067,132.581,456.749,211.6,456.749,130.5S369.911,0,238.3,0,0,65.746,0,146.847,201.764,376.326,209.415,254.453Z" transform="translate(1035.444 994.855) rotate(180)" fill="#ebebeb"/>
    <g id="Gruppe_385" data-name="Gruppe 385" transform="translate(448.633 260.743)">
      <g id="Ebene_1" data-name="Ebene 1" transform="translate(115.367 466.093)">
        <ellipse id="Ellipse_102" data-name="Ellipse 102" cx="77.802" cy="10.017" rx="77.802" ry="10.017" transform="translate(3.478 222.078)" fill="#a0a0a0" opacity="0.48"/>
        <g id="Gruppe_374" data-name="Gruppe 374">
          <g id="Gruppe_369" data-name="Gruppe 369" transform="translate(30.134 176.922)">
            <path id="Pfad_820" data-name="Pfad 820" d="M153.108,580.974a5.316,5.316,0,0,0-3.16,1.178,5.312,5.312,0,0,0-3.159-1.178c-6.547,0-11.855,14.258-11.855,31.845s5.309,31.847,11.855,31.847h6.319c6.547,0,11.854-14.258,11.854-31.847S159.655,580.974,153.108,580.974Z" transform="translate(-134.934 -580.974)"/>
            <ellipse id="Ellipse_103" data-name="Ellipse 103" cx="4.131" cy="20.916" rx="4.131" ry="20.916" transform="translate(5.161 11.864)" fill="#00aed6"/>
          </g>
          <g id="Gruppe_370" data-name="Gruppe 370" transform="translate(3.262 176.922)">
            <path id="Pfad_821" data-name="Pfad 821" d="M133.46,580.974a4.675,4.675,0,0,0-2.777,1.035,4.675,4.675,0,0,0-2.777-1.035c-5.757,0-10.421,12.533-10.421,27.995s4.665,27.995,10.421,27.995h5.553c5.755,0,10.421-12.533,10.421-27.995S139.215,580.974,133.46,580.974Z" transform="translate(-117.485 -580.974)"/>
            <ellipse id="Ellipse_104" data-name="Ellipse 104" cx="3.632" cy="18.387" rx="3.632" ry="18.387" transform="translate(4.536 10.429)" fill="#00aed6"/>
          </g>
          <g id="Gruppe_373" data-name="Gruppe 373" transform="translate(118.117 175.283)">
            <g id="Gruppe_371" data-name="Gruppe 371" transform="translate(28.556)">
              <path id="Pfad_822" data-name="Pfad 822" d="M228.779,579.91a5.315,5.315,0,0,0-3.159,1.178,5.312,5.312,0,0,0-3.159-1.178c-6.547,0-11.855,14.258-11.855,31.847s5.309,31.847,11.855,31.847h6.317c6.548,0,11.855-14.258,11.855-31.847S235.327,579.91,228.779,579.91Z" transform="translate(-210.606 -579.91)"/>
              <ellipse id="Ellipse_105" data-name="Ellipse 105" cx="4.131" cy="20.916" rx="4.131" ry="20.916" transform="translate(5.161 11.864)" fill="#00aed6"/>
            </g>
            <g id="Gruppe_372" data-name="Gruppe 372">
              <path id="Pfad_823" data-name="Pfad 823" d="M208.04,579.91a4.664,4.664,0,0,0-2.777,1.036,4.667,4.667,0,0,0-2.777-1.036c-5.757,0-10.423,12.534-10.423,28S196.73,635.9,202.487,635.9h5.553c5.755,0,10.421-12.534,10.421-27.995S213.8,579.91,208.04,579.91Z" transform="translate(-192.064 -579.91)"/>
              <ellipse id="Ellipse_106" data-name="Ellipse 106" cx="3.632" cy="18.387" rx="3.632" ry="18.387" transform="translate(4.537 10.43)" fill="#00aed6"/>
            </g>
          </g>
          <path id="Pfad_824" data-name="Pfad 824" d="M144.149,657.408H119.772a4.406,4.406,0,0,1-4.4-4.4V560.222l11.466-61.4a4.4,4.4,0,0,1,4.4-4.4h12.913a4.4,4.4,0,0,1,4.4,4.4V653A4.4,4.4,0,0,1,144.149,657.408Z" transform="translate(-115.367 -450.797)" fill="#00aed6"/>
          <rect id="Rechteck_350" data-name="Rechteck 350" width="156.746" height="206.611" rx="2.689" transform="translate(25.861)" fill="#00cafd"/>
          <rect id="Rechteck_351" data-name="Rechteck 351" width="126.452" height="198.109" rx="2.983" transform="translate(53.264 4.946)" fill="#2c120b"/>
          <rect id="Rechteck_352" data-name="Rechteck 352" width="126.452" height="36.17" rx="2.983" transform="translate(53.264 4.946)" fill="#0a94b4"/>
          <path id="Pfad_825" data-name="Pfad 825" d="M116.546,558.312h20.509V497.953h-9.007Z" transform="translate(-114.73 -448.887)" fill="#fff"/>
          <path id="Pfad_826" data-name="Pfad 826" d="M116.576,537.146v89.647s-.813,4.255,2.589,4.255h17.92v-93.9Z" transform="translate(-114.76 -427.721)" fill="#00cafd"/>
          <path id="Pfad_827" data-name="Pfad 827" d="M134.934,606.5c0-11.552,3.006-17.826,6.713-17.826s6.712,6.274,6.712,17.826Z" transform="translate(-104.8 -399.892)" fill="#2c120b"/>
          <path id="Pfad_828" data-name="Pfad 828" d="M117.339,606.5c0-11.552,3-17.826,6.712-17.826s6.712,6.274,6.712,17.826Z" transform="translate(-114.302 -399.892)" fill="#2c120b"/>
          <path id="Pfad_829" data-name="Pfad 829" d="M138.285,606.364c0-9.835,1.341-15.844,3.148-17.413.316-.274,5.116,2.778,5.116,17.413Z" transform="translate(-102.99 -399.753)" fill="#00aed6"/>
          <path id="Pfad_830" data-name="Pfad 830" d="M120.43,606.412c0-10.107,1.246-16.175,2.9-17.533.236-.194,2.093.481,2.649,1.984,1.029,2.778,1.714,8.053,1.714,15.55Z" transform="translate(-112.633 -399.801)" fill="#00aed6"/>
        </g>
        <g id="Gruppe_375" data-name="Gruppe 375" transform="translate(54.12 77.494)">
          <path id="Pfad_831" data-name="Pfad 831" d="M150.509,586.517v8.3l6.773,6.605h11.746l-.909-3.388-7.619-9.99s-4.572-4.064-7.281-3.725S150.509,586.517,150.509,586.517Z" transform="translate(-150.509 -479.752)" fill="#73190c"/>
          <path id="Pfad_832" data-name="Pfad 832" d="M174.7,590.468l-2.2,9.144,1.1,1.524,21.59.677v-2.2l-5.08-4.741-9.991-7.231Z" transform="translate(-138.633 -477.946)" fill="#73190c"/>
          <path id="Pfad_833" data-name="Pfad 833" d="M181.609,532.3l-7.788,2.878s-7.79,2.711-8.637,5.419-6.265,14.563-5.758,17.272a30.847,30.847,0,0,0,2.88,6.943l-.339,5.758s1.693,3.217,7.451,5.418,22.183,2.539,22.183,2.539l6.943-28.109a21.539,21.539,0,0,1,3.725,5c1.015,2.285,4.572,3.3,4.572,3.3l5.926-1.863a8.565,8.565,0,0,0-1.694-8.3c-3.387-4.064-19.09-13.411-19.09-13.411Z" transform="translate(-145.711 -507.832)" fill="#5e6e99"/>
          <path id="Pfad_834" data-name="Pfad 834" d="M166.766,557.15s-5.4,8.008-5.928,13.038,1.016,15.579,1.016,15.579-7.451,7.959-7.959,8.3a53.072,53.072,0,0,0-3.387,5.249s2.62,4.737,5.837,4.568,6.6-4.91,7.112-5.587,7.451-7.62,7.451-7.62l3.9-19.386,14.481,15.157-2.71,20.489s8.207,1.863,8.376,0,6.186-26.755,6.186-26.755L192,565.107Z" transform="translate(-150.509 -494.412)" fill="#4a556d"/>
          <path id="Pfad_835" data-name="Pfad 835" d="M174.365,543.845l-4.009,41.167,32.257,10.311,42.5-1.355,5.08-42.333-34.883-6.773-16.593-.412Z" transform="translate(-139.791 -501.597)" fill="#e8b089"/>
          <path id="Pfad_836" data-name="Pfad 836" d="M174.365,543.845l33.156,9.684-4.907,41.793-32.257-10.311Z" transform="translate(-139.791 -501.597)" fill="#c69777"/>
          <path id="Pfad_837" data-name="Pfad 837" d="M192.451,526s-.681,8.617-2.268,11.791-3.4,3.628-3.4,3.628l-4.959-1.588-.907,5.781s-8.741,8.7-5.1-6.35c0-6.461.764-6.461.764-6.461l-2.495-6.8,13.6-6.8Z" transform="translate(-137.777 -514.909)" fill="#fcd8c1"/>
          <path id="Pfad_838" data-name="Pfad 838" d="M165.4,555.327s-2.9-2.761-.553-4.557a6.751,6.751,0,0,1,5.387-.967l7.291,7.964,7.389-4.386-.967,3.921,9.944,6.353-4.152,5.524-10.562-2.144-2.689-4.9Z" transform="translate(-143.261 -498.483)" fill="#fcd8c1"/>
          <path id="Pfad_839" data-name="Pfad 839" d="M218.575,562.4l.677-11.99-30.478-6.169" transform="translate(-129.844 -501.385)" fill="none" stroke="#c69777" stroke-width="0.496"/>
          <path id="Pfad_840" data-name="Pfad 840" d="M174.613,529.063h4.905a18.951,18.951,0,0,0,6.273,1.5c2.848,0,2.56-2.1,6.884-2.147,5.35-.063,4.631,1.135,4.631,1.135l-3.517-3.828a13.339,13.339,0,0,1-1.113-4.46c-.223-2.675-3.792-5.573-8.92-4.682s-9.365,2.675-10.033,5.8A12.8,12.8,0,0,0,174.613,529.063Z" transform="translate(-138.063 -516.412)" fill="#5e6e99"/>
          <path id="Pfad_841" data-name="Pfad 841" d="M181.5,520.09l6.884-.531.651,3.262h-6.563Z" transform="translate(-133.773 -514.712)" fill="#ee4b36"/>
          <path id="Pfad_842" data-name="Pfad 842" d="M179.148,524.627l-2.654,7.778-2.251-7.778Z" transform="translate(-137.692 -511.976)" fill="#2c120b"/>
        </g>
      </g>
      <g id="Ebene_2" data-name="Ebene 2" transform="translate(219.013 536.136)">
        <path id="Pfad_843" data-name="Pfad 843" d="M247.2,640.477h61.711l6.4-1.912,1.54-59.543H246.18Z" transform="translate(-148.368 -475.15)" fill="#e8b089"/>
        <rect id="Rechteck_353" data-name="Rechteck 353" width="31.24" height="61.455" transform="translate(161.956 103.872)" fill="#c69777"/>
        <path id="Pfad_844" data-name="Pfad 844" d="M253.413,544.437h82.2V597.7h-82.2Z" transform="translate(-144.462 -493.827)" fill="#e8b089"/>
        <rect id="Rechteck_354" data-name="Rechteck 354" width="43.147" height="53.261" transform="translate(150.049 50.611)" fill="#c69777"/>
        <path id="Pfad_845" data-name="Pfad 845" d="M194.291,617.663V571.882h109.1v75.795h-109.1Z" transform="translate(-176.391 -479.006)" fill="#e8b089"/>
        <path id="Pfad_846" data-name="Pfad 846" d="M200.456,535.136h93.463v56.59H200.456Z" transform="translate(-173.062 -498.85)" fill="#e8b089"/>
        <path id="Pfad_847" data-name="Pfad 847" d="M213.591,516.763H273.51v28.3H213.591Z" transform="translate(-165.968 -508.772)" fill="#e8b089"/>
        <ellipse id="Ellipse_107" data-name="Ellipse 107" cx="31.098" cy="1.207" rx="31.098" ry="1.207" transform="translate(140.005 172.377)" fill="#a0a0a0" opacity="0.58"/>
        <rect id="Rechteck_355" data-name="Rechteck 355" width="29.932" height="56.59" transform="translate(90.926 36.286)" fill="#c69777"/>
        <rect id="Rechteck_356" data-name="Rechteck 356" width="29.932" height="29.932" transform="translate(77.583 8.346)" fill="#c69777"/>
        <rect id="Rechteck_357" data-name="Rechteck 357" width="56.044" height="75.795" transform="translate(69.075 92.876)" fill="#c69777"/>
        <rect id="Rechteck_358" data-name="Rechteck 358" width="12.803" height="1.792" transform="translate(87.057 14.777)" fill="#937661"/>
        <rect id="Rechteck_359" data-name="Rechteck 359" width="12.803" height="1.792" transform="translate(91.41 101.58)" fill="#937661"/>
        <rect id="Rechteck_360" data-name="Rechteck 360" width="12.803" height="1.792" transform="translate(166.949 57.524)" fill="#937661"/>
        <g id="Gruppe_377" data-name="Gruppe 377" transform="translate(104.214 98.495)">
          <g id="Gruppe_376" data-name="Gruppe 376" transform="translate(0 31.752)">
            <path id="Pfad_848" data-name="Pfad 848" d="M250.337,633.537V596.148h76.307v40.458H276.456Z" transform="translate(-250.337 -596.148)" fill="#e8b089" opacity="0.56"/>
          </g>
          <path id="Pfad_849" data-name="Pfad 849" d="M250.337,633.537V596.148h76.307v40.458H276.456Z" transform="translate(-250.337 -564.396)" fill="#e8b089"/>
          <rect id="Rechteck_361" data-name="Rechteck 361" width="47.628" height="40.458" transform="translate(28.679 31.752)" fill="#c69777"/>
          <rect id="Rechteck_362" data-name="Rechteck 362" width="57.355" height="31.752" transform="translate(12.321)" fill="#e8b089"/>
          <rect id="Rechteck_363" data-name="Rechteck 363" width="31.24" height="31.24" transform="translate(39.46 0.512)" fill="#c69777"/>
          <rect id="Rechteck_364" data-name="Rechteck 364" width="12.803" height="1.792" transform="translate(48.678 8.151)" fill="#937661"/>
          <rect id="Rechteck_365" data-name="Rechteck 365" width="12.803" height="1.792" transform="translate(7.205 37.786) rotate(2.119)" fill="#937661"/>
        </g>
        <g id="Gruppe_378" data-name="Gruppe 378" transform="translate(141.393)">
          <path id="Pfad_850" data-name="Pfad 850" d="M300.951,579.659h47.566V547.375h-48.47Z" transform="translate(-260.671 -492.24)" fill="#e8b089"/>
          <path id="Pfad_851" data-name="Pfad 851" d="M297.087,615.433l-.741,8.958-3.988-1.258-.618-8.593Z" transform="translate(-265.157 -455.968)" fill="#fcd8c1"/>
          <path id="Pfad_852" data-name="Pfad 852" d="M284.026,610.458,281.3,620.516l-4.338-1.082,1.266-8.225Z" transform="translate(-273.141 -458.173)" fill="#fcd8c1"/>
          <path id="Pfad_853" data-name="Pfad 853" d="M315.049,579.659h25.63V547.375H314.561Z" transform="translate(-252.833 -492.24)" fill="#c69777"/>
          <path id="Pfad_854" data-name="Pfad 854" d="M294.737,521.866l-5.443,11.527,10.147,5.053a15.209,15.209,0,0,1-2.193-7.777,18.16,18.16,0,0,1,.838-5.449Z" transform="translate(-266.478 -506.016)" fill="#fcd8c1"/>
          <path id="Pfad_855" data-name="Pfad 855" d="M309.358,573.329,305.9,603.372v16.346l-.1,18.653h-6.7s-4.6-17.395-4.4-22.425c0,0,.836-11.318,1.046-13.2a37.132,37.132,0,0,0,0-5.03L287.8,621.6l-3.557,14.461-6.909-3.562s2.3-9.852,4.6-20.54,4.816-19.281,4.816-24.521-.838-15.089-.838-15.089Z" transform="translate(-272.938 -478.751)" fill="#4a556d"/>
          <rect id="Rechteck_366" data-name="Rechteck 366" width="13.936" height="1.951" transform="translate(67.819 61.586)" fill="#937661"/>
          <path id="Pfad_856" data-name="Pfad 856" d="M292.142,528.916s2.313,3.772,5.663,4.19l3.348.42s2.513-5.45,2.513-10.061-5.763-9.22-5.763-9.22l-5.761,1.676Z" transform="translate(-264.94 -510.131)" fill="#fcd8c1"/>
          <path id="Pfad_857" data-name="Pfad 857" d="M292.652,620.487l-1.455,6.077s10.885,1.258,12.979,1.049a38.038,38.038,0,0,1,5.233.023s1.149-2.173,0-3.574-11-4.622-11-4.622Z" transform="translate(-265.451 -453.322)" fill="#73190c"/>
          <path id="Pfad_858" data-name="Pfad 858" d="M277.41,615.221l-2.931,6.5,16.328,7.124s2.389-1.234,1.674-3.026-4.4-3.889-6.488-6.194-4.4-4.4-4.4-4.4Z" transform="translate(-274.479 -455.6)" fill="#73190c"/>
          <path id="Pfad_859" data-name="Pfad 859" d="M307.02,562.033a10.142,10.142,0,0,0,3.146,1.12,16.443,16.443,0,0,1,2.826.419l6.176,4.716a11.035,11.035,0,0,1-1.99,0,20.1,20.1,0,0,1-3.139-.943l.836,2.515,3.559,1.991-1.047.628-7.535-.419-2.832-5.555-3.658-1.99Z" transform="translate(-258.881 -484.324)" fill="#fcd8c1"/>
          <path id="Pfad_860" data-name="Pfad 860" d="M299.782,514.246s-2.5,3.562-3.705,4.82-1,6.915-1,6.915l-1.056,2.935-2.92-1.677s0-1.468-1.466-5.03a14.29,14.29,0,0,1-.836-7.126Z" transform="translate(-266.818 -510.131)" fill="#2c140d"/>
          <path id="Pfad_861" data-name="Pfad 861" d="M292.938,527.824l10.147,7.4s7.437,17.372,7.437,26.174v14.252l9,3.353L314.5,584.98h-2.929l-1.346,12.547L282.547,596.4l5.367-60.148Z" transform="translate(-270.122 -502.799)" fill="#5e6e99"/>
          <path id="Pfad_862" data-name="Pfad 862" d="M292.055,517.822s-1.529,2.613-1.529,4.133v5.03c0,3.659-6.738,7.756-6.826,12.621s-.936,11.78,0,13.06,3.838,3.273,3.959-2.561c.43-20.614,13.127-6.353,11.592-20.51-.388-3.579-3.992-5.544-3.992-5.544Z" transform="translate(-269.735 -508.2)" fill="#2c140d"/>
          <path id="Pfad_863" data-name="Pfad 863" d="M288.594,522.092l27.136-1.076-1.075-2.421h-8.883s-1.056-7.531-4.756-6.993-8.929,0-11.349,1.077S288.594,522.092,288.594,522.092Z" transform="translate(-267.058 -511.574)" fill="#5e6e99"/>
          <path id="Pfad_864" data-name="Pfad 864" d="M296.788,516.183h4.04a14.771,14.771,0,0,0-1.09-3.048h-2.949Z" transform="translate(-262.431 -510.731)" fill="#ee4b36"/>
        </g>
        <ellipse id="Ellipse_108" data-name="Ellipse 108" cx="47.624" cy="1.207" rx="47.624" ry="1.207" transform="translate(0 172.52)" fill="#a0a0a0" opacity="0.64"/>
        <g id="Gruppe_381" data-name="Gruppe 381" transform="translate(8.324 76.35)">
          <g id="Gruppe_380" data-name="Gruppe 380">
            <g id="Gruppe_379" data-name="Gruppe 379" transform="translate(49.584 55.056)">
              <rect id="Rechteck_367" data-name="Rechteck 367" width="37.338" height="31.847" transform="translate(0 5.9)" fill="#e8b089"/>
              <path id="Pfad_865" data-name="Pfad 865" d="M220.27,602.8l5.713-5.9h26.525l5.1,5.9Z" transform="translate(-220.27 -596.9)" fill="#c69777"/>
              <line id="Linie_66" data-name="Linie 66" x2="30.697" transform="translate(3.509 2.277)" fill="none" stroke="#e8b089" stroke-miterlimit="10" stroke-width="0.398"/>
            </g>
            <path id="Pfad_866" data-name="Pfad 866" d="M198.2,613.921s-2.888,3.554-3.109,5.553a26.161,26.161,0,0,0,0,4.443s6.952,5.775,10.474,5.775h5.965s4,.222,2.888-2.888a5.24,5.24,0,0,0-5.11-3.333c-.889,0-3.742-1.663-3.742-1.663l-.813-7Z" transform="translate(-184.335 -532.652)" fill="#2c120b"/>
            <path id="Pfad_867" data-name="Pfad 867" d="M215.584,595.161l12.781,23.1a11.437,11.437,0,0,0,6.887,7.109c5.332,1.777,6.886,1.11,6.886,1.11s-2.443,2.789-3.776,2.616-2.444,1.381-2.444,1.381l2,7.776h-5.777l-3.28-1.777-.16-7.38-14.661-22.386-3.554-5.11-1-8.886Z" transform="translate(-176.51 -544.103)" fill="#fe9569"/>
            <path id="Pfad_868" data-name="Pfad 868" d="M191.028,597.627s.251,2.664,9.359,2.443,16.66-2.666,23.547-2.443,12.439.889,8.219,7.552-14.218,10-17.549,13.773a54.092,54.092,0,0,0-5.332,7.107s-4.221.889-5.775,0-1.555-3.331-1.555-3.331l.222-2s-7.138.222-10.026-3.554-5.108-9.775-3.554-12.44A28.466,28.466,0,0,0,191.028,597.627Z" transform="translate(-188.073 -541.459)" fill="#ee4b36"/>
            <path id="Pfad_869" data-name="Pfad 869" d="M190.152,610.008s4.917-17.772,11.581-23.991a51.7,51.7,0,0,1,14.661-9.331l.889-2a12.366,12.366,0,0,1,6.442,5.11c2.888,4.22,3.331,6.885,3.331,6.885l-1.332,8.664,2.443,11.329-11.55-.667-.889,3.984s-3.271,2.823-16.217,2.458S190.152,610.008,190.152,610.008Z" transform="translate(-187.197 -553.84)" fill="#a20f2d"/>
            <path id="Pfad_870" data-name="Pfad 870" d="M214.363,585.873,218.8,584.1a25.457,25.457,0,0,0,4.577.889H224.8s1.332-2,2.221-8.219a44.063,44.063,0,0,0,0-11.774l-6.132-1.555-9.417,3.554a58.74,58.74,0,0,0-.665,9.553c.063,3.973-3.776,6.219-3.776,6.219Z" transform="translate(-177.835 -559.916)" fill="#fe9569"/>
            <path id="Pfad_871" data-name="Pfad 871" d="M213.674,582s-4.388,2.832-5.609,0a16.326,16.326,0,0,1-.889-10.163c.833-4.164-.168-6.664,2.165-8a8.438,8.438,0,0,1,5.332-.667s-1.5-1.833,1.332-2a14.5,14.5,0,0,1,5.165.665,11.855,11.855,0,0,0,2.355,1.334c.976.333,5.4-.793,6.531,4.388,1.015,4.643-2.889,4.643-2.889,4.643s-6-.034-7-1.2-2.937.071-2.8,1.2a29.926,29.926,0,0,1-.317,4.463l-2.714-1.833-.665,2.5Z" transform="translate(-177.979 -561.15)" fill="#a20f2d"/>
          </g>
          <rect id="Rechteck_368" data-name="Rechteck 368" width="12.803" height="1.792" transform="translate(60.874 65.653)" fill="#937661"/>
        </g>
        <g id="Gruppe_384" data-name="Gruppe 384" transform="translate(254.081 22.911)">
          <g id="Gruppe_382" data-name="Gruppe 382" transform="translate(0 44.455)">
            <path id="Pfad_872" data-name="Pfad 872" d="M347.651,555.317h45.895v28.3H347.651Z" transform="translate(-347.651 -555.317)" fill="#e8b089"/>
            <rect id="Rechteck_369" data-name="Rechteck 369" width="29.932" height="27.94" transform="translate(15.935 0.355)" fill="#c69777"/>
            <rect id="Rechteck_370" data-name="Rechteck 370" width="12.803" height="1.792" transform="translate(25.41 6.786)" fill="#937661"/>
          </g>
          <ellipse id="Ellipse_109" data-name="Ellipse 109" cx="85.163" cy="1.207" rx="85.163" ry="1.207" transform="translate(1.925 151.674)" fill="#a0a0a0" opacity="0.64"/>
          <g id="Gruppe_383" data-name="Gruppe 383" transform="translate(107.495)">
            <path id="Pfad_873" data-name="Pfad 873" d="M417.887,538.8l31.851-1.263-1.261-2.841H438.051s-1.241-8.84-5.583-8.208-10.482,0-13.32,1.263S417.887,538.8,417.887,538.8Z" transform="translate(-417.45 -526.451)" fill="#5e6e99"/>
            <path id="Pfad_874" data-name="Pfad 874" d="M427.506,531.859h4.74a17.287,17.287,0,0,0-1.278-3.576h-3.462Z" transform="translate(-412.02 -525.462)" fill="#ee4b36"/>
          </g>
          <path id="Pfad_875" data-name="Pfad 875" d="M399.253,596.9l3.313,4.547v1.414l-3.638-.717Z" transform="translate(-319.958 -488.407)" fill="#2c120b"/>
          <circle id="Ellipse_110" data-name="Ellipse 110" cx="33.288" cy="33.288" r="33.288" transform="translate(7.975 85.616)" fill="none" stroke="#2c120b" stroke-miterlimit="10" stroke-width="1.656"/>
          <path id="Pfad_876" data-name="Pfad 876" d="M422.589,578.339l-3.674-9.328H431.5s5.079.182,5.336,3.382-4.737,4.993-4.737,4.993" transform="translate(-309.165 -503.467)" fill="none" stroke="#ee4b36" stroke-linecap="round" stroke-miterlimit="10" stroke-width="0.828"/>
          <circle id="Ellipse_111" data-name="Ellipse 111" cx="33.288" cy="33.288" r="33.288" transform="translate(99.571 85.616)" fill="none" stroke="#2c120b" stroke-miterlimit="10" stroke-width="1.656"/>
          <path id="Pfad_877" data-name="Pfad 877" d="M410,559.135l3.873,13.006,25.443,16.114,1.13,7.351s3.111-.283,4.525-2.25-1.132-5.949-3.111-8.21-19.223-15.832-19.223-15.832L420.1,548.952s0-2.544,2.826-5.372,2.828-3.109,2.828-3.109l-1.7-3.952L420.1,538.78s-8.723,1.66-10.093,4.488S410,559.135,410,559.135Z" transform="translate(-314.306 -521.014)" fill="#73190c"/>
          <path id="Pfad_878" data-name="Pfad 878" d="M464.223,620.463,446.978,578.34,399.2,585.407l-25.45,36.9,36.758,5.221-15.831-58.52" transform="translate(-333.555 -503.467)" fill="none" stroke="#ee4b36" stroke-miterlimit="10" stroke-width="0.828"/>
          <path id="Pfad_879" data-name="Pfad 879" d="M436.341,577.305l-40.282,40.586,2.4,5.159,39.889-40.836Z" transform="translate(-321.508 -498.988)" fill="#ee4b36"/>
          <path id="Pfad_880" data-name="Pfad 880" d="M404.338,560.745l-3.645,1.184-19.79-6.5a37.968,37.968,0,0,0-2.965,9.613c-.565,4.523.139,7.916,9.467,11.308s8.495,5.07,15.266,9.893l2.262,1.612s-.722,6.377-1.7,11.11c-.775,3.767-1.414,28.271,0,30.744s6.785,0,6.785,0l1.414-22.828,5.369-6.785s15.172-12.522,15.268-21.485S404.338,560.745,404.338,560.745Zm14.449,25.5c-1.4,3.49-2.817,3.7-2.817,3.7a22.646,22.646,0,0,0-1.425-6.8c-1.414-3.97-2.544-6.8-2.544-6.8l7.916,3.674A14.535,14.535,0,0,1,418.787,586.241Z" transform="translate(-331.372 -510.803)" fill="#4a556d"/>
          <path id="Pfad_881" data-name="Pfad 881" d="M379.813,566.187s12.722-21.2,22.052-25.725,12.156-5.372,18.376-4.806,15.832,3.674,15.832,3.674v12.722s-1.7-9.046-6.22-8.2-3.873,15.83-3.873,15.83-12.524-.847-18.037,3.393-4.786,11.025-4.786,11.025Z" transform="translate(-330.282 -521.564)" fill="#5e6e99"/>
          <path id="Pfad_882" data-name="Pfad 882" d="M436.088,533.4a73.569,73.569,0,0,1-2.261,11.309c-1.414,4.241-7.323,6.785-7.323,6.785l-5.4-9.336L418,535.377Z" transform="translate(-309.661 -522.699)" fill="#73190c"/>
          <path id="Pfad_883" data-name="Pfad 883" d="M393.03,602.6v8.621s15.025,1.132,18.679.99,3.938-1.13,3.938-1.13a4.547,4.547,0,0,0-.707-2.828c-.849-.99-10.883-4.381-11.167-4.665a45.924,45.924,0,0,0-5.51-.989Z" transform="translate(-323.144 -485.325)" fill="#2c120b"/>
          <path id="Pfad_884" data-name="Pfad 884" d="M395.04,602.211s-3.71.471-3.568-.376,2.4-7.492,2.4-7.492l1.166,1.626Z" transform="translate(-323.988 -489.786)" fill="#2c120b"/>
          <line id="Linie_67" data-name="Linie 67" x1="44.527" transform="translate(18.435 72.34)" fill="none" stroke="#ee4b36" stroke-miterlimit="10" stroke-width="0.828"/>
          <line id="Linie_68" data-name="Linie 68" x1="14.143" y1="46.502" transform="translate(26.054 72.34)" fill="none" stroke="#ee4b36" stroke-miterlimit="10" stroke-width="0.828"/>
          <path id="Pfad_885" data-name="Pfad 885" d="M435.671,583.7l4.562-2.845-15.3-12.336-2.544-30.532h-8.078l-9.146,11.025,7.877,11.831,3.128,10.5Z" transform="translate(-316.593 -520.221)" fill="#5e6e99"/>
          <line id="Linie_69" data-name="Linie 69" x1="14.973" y2="2.215" transform="translate(84.598 76.922)" fill="none" stroke="#ee4b36" stroke-miterlimit="10" stroke-width="0.828"/>
        </g>
      </g>
    </g>
  </g>
</svg>
