<svg width="491" height="153" viewBox="0 0 491 153" fill="none" xmlns="http://www.w3.org/2000/svg">
<rect x="139.949" y="39.7736" width="23.0295" height="109.833" rx="10" fill="white"/>
<rect x="110.712" y="72.1593" width="23.0295" height="76.9044" rx="10" transform="rotate(13.8416 110.712 72.1593)" fill="white"/>
<rect y="25.796" width="23.0295" height="129.32" rx="10" transform="rotate(-13.84 0 25.796)" fill="white"/>
<rect x="58.4596" y="31.071" width="23.0295" height="128.109" rx="10" transform="rotate(-18.3258 58.4596 31.071)" fill="white"/>
<rect x="65.4707" y="22.0586" width="23.0295" height="130.106" rx="10" transform="rotate(18.33 65.4707 22.0586)" fill="white"/>
<path d="M387.959 97.3198V38.7771C387.959 33.7948 389.066 30.058 391.281 27.5668C393.55 25.0756 396.512 23.83 400.165 23.83C403.986 23.83 407.003 25.0756 409.217 27.5668C411.487 30.058 412.622 33.7948 412.622 38.7771V98.6485C412.622 105.458 413.37 111.16 414.863 115.754C416.413 120.294 419.127 123.837 423.001 126.383C426.876 128.875 432.302 130.12 439.276 130.12C448.91 130.12 455.719 127.574 459.705 122.481C463.691 117.332 465.684 109.554 465.684 99.1466V38.7771C465.684 33.7394 466.791 30.0026 469.005 27.5668C471.22 25.0756 474.182 23.83 477.89 23.83C481.599 23.83 484.589 25.0756 486.859 27.5668C489.183 30.0026 490.347 33.7394 490.347 38.7771V97.3198C490.347 106.842 489.404 114.786 487.523 121.152C485.697 127.518 482.208 133.11 477.06 137.926C472.632 142.022 467.482 145.012 461.615 146.894C455.746 148.776 448.881 149.718 441.021 149.718C431.666 149.718 423.611 148.721 416.856 146.728C410.103 144.68 404.594 141.552 400.331 137.345C396.069 133.082 392.941 127.657 390.948 121.069C388.955 114.426 387.959 106.509 387.959 97.3198Z" fill="white"/>
<path fill-rule="evenodd" clip-rule="evenodd" d="M271.323 87.6042H236.752C231.23 87.6042 226.752 83.1271 226.752 77.6042V74.5747C226.752 69.0518 231.23 64.5747 236.752 64.5747L284.07 64.5747C289.592 64.5747 294.07 69.0518 294.07 74.5747L294.07 86.7184L294.07 87.6042H294.063C293.885 100.432 289.843 112.906 282.468 123.346C274.923 134.027 264.27 142.042 252.004 146.267C239.739 150.492 226.476 150.714 214.08 146.902C201.683 143.091 190.775 135.437 182.886 125.015C174.998 114.593 170.526 101.927 170.098 88.7956C169.67 75.664 173.308 62.7262 180.501 51.799C187.693 40.8718 198.08 32.504 210.201 27.8705C219.211 24.4265 228.843 23.1742 238.333 24.152C243.799 24.7151 246.954 30.2525 245.553 35.5662L244.778 38.5049C243.363 43.872 237.81 46.9192 232.259 46.8917C227.492 46.868 222.733 47.7248 218.219 49.45C210.543 52.3844 203.965 57.6838 199.41 64.604C194.855 71.5242 192.551 79.7176 192.822 88.0339C193.093 96.3501 195.925 104.371 200.921 110.972C205.916 117.572 212.825 122.419 220.676 124.833C228.526 127.247 236.925 127.106 244.693 124.43C252.461 121.755 259.208 116.679 263.986 109.915C268.594 103.391 271.148 95.6138 271.323 87.6042Z" fill="white"/>
<circle cx="151.464" cy="12.3153" r="11.5148" fill="white"/>
<path fill-rule="evenodd" clip-rule="evenodd" d="M381.045 89.3757C381.045 122.64 354.476 149.607 321.7 149.607C307.108 149.607 293.746 144.262 283.411 135.395C287.837 131.181 291.594 126.271 294.507 120.841C301.581 126.634 310.695 130.12 320.642 130.12C343.145 130.12 361.387 112.275 361.387 90.2615C361.387 68.2481 343.145 50.4027 320.642 50.4027C311.154 50.4027 302.423 53.5755 295.497 58.8959C294.228 58.3128 292.816 57.9877 291.328 57.9877H271.04C281.467 40.6886 300.255 29.1446 321.7 29.1446C354.476 29.1446 381.045 56.1109 381.045 89.3757Z" fill="white"/>
</svg>
